<?xml version="1.0" encoding="UTF-8" standalone="no"?>
<svg
   xmlns:dc="http://purl.org/dc/elements/1.1/"
   xmlns:cc="http://creativecommons.org/ns#"
   xmlns:rdf="http://www.w3.org/1999/02/22-rdf-syntax-ns#"
   xmlns:svg="http://www.w3.org/2000/svg"
   xmlns="http://www.w3.org/2000/svg"
   xmlns:sodipodi="http://sodipodi.sourceforge.net/DTD/sodipodi-0.dtd"
   xmlns:inkscape="http://www.inkscape.org/namespaces/inkscape"
   height="64"
   version="1.1"
   viewBox="0 0 64 64"
   width="64"
   id="svg11"
   sodipodi:docname="controller.svg"
   inkscape:version="0.92.4 5da689c313, 2019-01-14"
   inkscape:export-filename="/home/caellian/.config/awesome/theme/graphics/tag-documentation.png"
   inkscape:export-xdpi="96"
   inkscape:export-ydpi="96">
  <metadata
     id="metadata15">
    <rdf:RDF>
      <cc:Work
         rdf:about="">
        <dc:format>image/svg+xml</dc:format>
        <dc:type
           rdf:resource="http://purl.org/dc/dcmitype/StillImage" />
        <dc:title />
      </cc:Work>
    </rdf:RDF>
  </metadata>
  <sodipodi:namedview
     pagecolor="#000000"
     bordercolor="#666666"
     borderopacity="1"
     objecttolerance="10"
     gridtolerance="10"
     guidetolerance="10"
     inkscape:pageopacity="0"
     inkscape:pageshadow="2"
     inkscape:window-width="1598"
     inkscape:window-height="820"
     id="namedview13"
     showgrid="false"
     inkscape:zoom="5.2425339"
     inkscape:cx="14.474633"
     inkscape:cy="34.666003"
     inkscape:window-x="0"
     inkscape:window-y="26"
     inkscape:window-maximized="1"
     inkscape:current-layer="g9364"
     inkscape:pagecheckerboard="false"
     inkscape:snap-bbox="true"
     inkscape:bbox-paths="false"
     inkscape:snap-bbox-edge-midpoints="false"
     inkscape:object-paths="true"
     inkscape:snap-midpoints="true"
     inkscape:snap-center="true"
     inkscape:snap-object-midpoints="true"
     inkscape:snap-smooth-nodes="true"
     inkscape:snap-intersection-paths="true"
     inkscape:snap-bbox-midpoints="false"
     inkscape:bbox-nodes="false"
     inkscape:snap-nodes="true"
     inkscape:snap-others="false" />
  <desc
     id="desc4" />
  <defs
     id="defs6" />
  <g
     id="g9364">
    <path
       inkscape:connector-curvature="0"
       d="M 28.022666,17.114635 C 25.168891,14.320409 18.516351,13.197111 14.768448,17.214165 11.0999,21.13169 8.1364808,30.577698 8.1364808,39.486912 c 0,10.748793 9.0090172,12.240359 13.9202582,6.960298 2.843257,-3.062578 3.112265,-3.540726 4.971772,-5.965927 h 9.942979 c 1.869133,2.425201 2.12752,2.903236 4.971433,5.965927 4.911793,5.280061 13.920596,3.788495 13.920596,-6.960298 0,-8.909101 -2.963532,-18.355222 -6.631978,-22.272747 -3.748004,-4.017124 -10.390918,-2.893713 -13.254421,-0.09953 -1.104036,1.073826 -3.977176,1.491341 -3.977176,1.491341 0,0 -2.874337,-0.417515 -3.977278,-1.491341 z m -3.977175,6.562374 v 2.883646 h 2.883861 c 1.153508,0 2.087685,0.894556 2.087685,1.988526 0,1.093857 -0.934177,1.988537 -2.087685,1.988537 h -2.883861 v 2.883748 c 0,1.15361 -0.895336,2.087798 -1.988752,2.087798 -1.093303,0 -1.988526,-0.934188 -1.988526,-2.087798 v -2.883748 h -2.883862 c -1.153723,0 -2.087583,-0.89468 -2.087583,-1.988537 0,-1.09397 0.933973,-1.988526 2.087583,-1.988526 h 2.883862 v -2.883646 c 0,-1.153509 0.895223,-2.088126 1.988526,-2.088126 1.093416,0 1.988752,0.934617 1.988752,2.088126 z m 17.897432,1.391967 c 0,-1.371937 1.114102,-2.485711 2.486163,-2.485711 1.371835,0 2.485937,1.113774 2.485937,2.485711 0,1.371947 -1.114102,2.485722 -2.485937,2.485722 -1.372162,0 -2.486163,-1.113662 -2.486163,-2.485722 z m -4.971433,5.965927 c 0,-1.371947 1.113989,-2.485722 2.485937,-2.485722 1.372049,0 2.485496,1.113775 2.485496,2.485722 0,1.371936 -1.113447,2.486039 -2.485496,2.486039 -1.372049,0 -2.485937,-1.114103 -2.485937,-2.486039 z"
       id="path2-3"
       style="clip-rule:evenodd;fill:none;fill-rule:evenodd;stroke:#ffffff;stroke-width:3;stroke-linejoin:round;stroke-miterlimit:4;stroke-dasharray:none;stroke-opacity:1" />
  </g>
</svg>
