<?xml version="1.0" encoding="UTF-8" standalone="no"?>
<svg
   xmlns:dc="http://purl.org/dc/elements/1.1/"
   xmlns:cc="http://creativecommons.org/ns#"
   xmlns:rdf="http://www.w3.org/1999/02/22-rdf-syntax-ns#"
   xmlns:svg="http://www.w3.org/2000/svg"
   xmlns="http://www.w3.org/2000/svg"
   xmlns:sodipodi="http://sodipodi.sourceforge.net/DTD/sodipodi-0.dtd"
   xmlns:inkscape="http://www.inkscape.org/namespaces/inkscape"
   height="64"
   version="1.1"
   viewBox="0 0 64 64"
   width="64"
   id="svg11"
   sodipodi:docname="file.svg"
   inkscape:version="0.92.4 5da689c313, 2019-01-14"
   inkscape:export-filename="/home/caellian/.config/awesome/theme/graphics/tag-documentation.png"
   inkscape:export-xdpi="96"
   inkscape:export-ydpi="96">
  <metadata
     id="metadata15">
    <rdf:RDF>
      <cc:Work
         rdf:about="">
        <dc:format>image/svg+xml</dc:format>
        <dc:type
           rdf:resource="http://purl.org/dc/dcmitype/StillImage" />
        <dc:title></dc:title>
      </cc:Work>
    </rdf:RDF>
  </metadata>
  <sodipodi:namedview
     pagecolor="#000000"
     bordercolor="#666666"
     borderopacity="1"
     objecttolerance="10"
     gridtolerance="10"
     guidetolerance="10"
     inkscape:pageopacity="0"
     inkscape:pageshadow="2"
     inkscape:window-width="1598"
     inkscape:window-height="846"
     id="namedview13"
     showgrid="false"
     inkscape:zoom="7.4167645"
     inkscape:cx="46.22091"
     inkscape:cy="26.664319"
     inkscape:window-x="0"
     inkscape:window-y="26"
     inkscape:window-maximized="1"
     inkscape:current-layer="g8516" />
  <desc
     id="desc4" />
  <defs
     id="defs6" />
  <g
     id="g8516"
     transform="matrix(0.85645366,0,0,0.85645366,3.0352647,4.9524883)"
     style="stroke:#ffffff;stroke-opacity:1;stroke-width:2.33521099;stroke-miterlimit:4;stroke-dasharray:none">
    <g
       id="g8557"
       transform="matrix(0.91671887,0,0,0.91671887,2.8735332,2.6544759)">
      <path
         sodipodi:nodetypes="cssccccsccscccccccccccssccsccscccscsccccc"
         inkscape:connector-curvature="0"
         id="path8492"
         d="m 15.050223,57.864245 c -0.506541,-0.233784 -0.866556,-0.593482 -1.032581,-1.03167 -0.164425,-0.433965 -0.463735,-51.6548742 0,-51.6725005 5.812543,-0.2209305 7.833683,-0.063626 13.018485,-0.06472 7.942468,-0.00123 11.684768,0.035174 11.985908,0.1166053 0.37525,0.1014733 1.42869,1.1067447 7.36917,7.0322142 3.84909,3.839352 7.02515,7.09441 7.14229,7.319932 0.20583,0.396256 0.21095,0.849854 0.21095,18.683222 0,12.68013 -0.0357,18.371469 -0.11675,18.585247 -0.16603,0.438188 -0.52604,0.797886 -1.03259,1.03167 -0.42015,0.193914 -1.17834,0.202077 -18.77244,0.202077 -17.594096,0 -18.352284,-0.0082 -18.772442,-0.202077 z m 36.921332,-1.024667 c 0.25027,-0.165625 0.56684,-0.510425 0.70349,-0.766222 l 0.24845,-0.465084 0.033,-16.200125 c 0.0182,-8.910068 0.003,-16.453283 -0.0337,-16.762698 -0.0792,-0.667893 -0.46523,-1.310185 -1.01316,-1.685834 l -0.39264,-0.26918 -5.48124,-0.05473 c -8.002939,-0.111318 -7.969656,1.355544 -7.83461,-7.845949 -0.0615,-6.1726978 0.009,-5.6804924 -0.91529,-6.4282412 -0.4068,-0.3292497 -0.41665,-0.331057 -2.29158,-0.4201757 -1.03567,-0.049227 -5.774345,-0.075676 -10.530395,-0.058775 -9.445701,0.033565 -9.021406,0.00376 -9.513203,0.6681608 L 14.721912,6.8597763 V 31.398215 c 0,23.995949 0.0047,24.54782 0.210617,24.962801 0.146122,0.294413 0.347236,0.486574 0.656762,0.627522 0.429496,0.195581 1.108171,0.202211 18.186724,0.177671 l 17.74058,-0.02549 z m 0.3499,-37.326191 c 0,-0.07545 -2.90501,-3.041877 -6.45559,-6.592073 -4.57594,-4.5754447 -6.48962,-6.4208762 -6.57245,-6.3380483 -0.07499,0.075 -0.101616,1.570476 -0.08447,4.8093263 0.0013,0.246593 0.0029,0.503292 0.0047,0.770239 0.0411,6.061613 0.0363,6.018954 0.76066,6.743331 0.71933,0.719328 0.80278,0.728237 6.90155,0.736776 4.29496,0.006 5.44565,-0.02136 5.44565,-0.12955 z"
         style="fill:#ffffff;fill-opacity:1;stroke:#ffffff;stroke-width:3.50281644;stroke-miterlimit:4;stroke-dasharray:none;stroke-opacity:1" />
      <path
         inkscape:connector-curvature="0"
         id="path8537"
         d="M 24.396907,36.995842 H 43.766295"
         style="fill:none;stroke:#ffffff;stroke-width:5.83802748;stroke-linecap:round;stroke-linejoin:round;stroke-miterlimit:4;stroke-dasharray:none;stroke-opacity:1" />
      <path
         inkscape:connector-curvature="0"
         id="path8537-3"
         d="M 24.396907,45.456033 H 43.766294"
         style="fill:none;stroke:#ffffff;stroke-width:5.83802748;stroke-linecap:round;stroke-linejoin:round;stroke-miterlimit:4;stroke-dasharray:none;stroke-opacity:1" />
    </g>
  </g>
</svg>
