<?xml version="1.0" encoding="UTF-8" standalone="no"?>
<svg
   xmlns:dc="http://purl.org/dc/elements/1.1/"
   xmlns:cc="http://creativecommons.org/ns#"
   xmlns:rdf="http://www.w3.org/1999/02/22-rdf-syntax-ns#"
   xmlns:svg="http://www.w3.org/2000/svg"
   xmlns="http://www.w3.org/2000/svg"
   xmlns:sodipodi="http://sodipodi.sourceforge.net/DTD/sodipodi-0.dtd"
   xmlns:inkscape="http://www.inkscape.org/namespaces/inkscape"
   height="64"
   version="1.1"
   viewBox="0 0 64 64"
   width="64"
   id="svg11"
   sodipodi:docname="firefox.svg"
   inkscape:version="0.92.4 5da689c313, 2019-01-14"
   inkscape:export-filename="/home/caellian/.config/awesome/theme/graphics/tag-browser.png"
   inkscape:export-xdpi="96.000008"
   inkscape:export-ydpi="96.000008">
  <metadata
     id="metadata15">
    <rdf:RDF>
      <cc:Work
         rdf:about="">
        <dc:format>image/svg+xml</dc:format>
        <dc:type
           rdf:resource="http://purl.org/dc/dcmitype/StillImage" />
        <dc:title></dc:title>
      </cc:Work>
    </rdf:RDF>
  </metadata>
  <sodipodi:namedview
     pagecolor="#000000"
     bordercolor="#666666"
     borderopacity="1"
     objecttolerance="10"
     gridtolerance="10"
     guidetolerance="10"
     inkscape:pageopacity="0"
     inkscape:pageshadow="2"
     inkscape:window-width="1598"
     inkscape:window-height="820"
     id="namedview13"
     showgrid="false"
     inkscape:zoom="5.2444444"
     inkscape:cx="-3.4110162"
     inkscape:cy="22.5"
     inkscape:window-x="0"
     inkscape:window-y="26"
     inkscape:window-maximized="1"
     inkscape:current-layer="svg11"
     inkscape:pagecheckerboard="true" />
  <desc
     id="desc4" />
  <defs
     id="defs6" />
  <g
     id="Icons"
     style="fill:none;fill-opacity:1;fill-rule:evenodd;stroke:#ffffff;stroke-width:3;stroke-opacity:1;stroke-miterlimit:4;stroke-dasharray:none;paint-order:normal;stroke-linecap:round;stroke-linejoin:round;opacity:1"
     transform="translate(6.9976481,9.6994569)">
    <g
       id="Color-"
       transform="translate(-300,-1044)"
       style="fill:none;stroke:#ffffff;fill-opacity:1;stroke-opacity:1;stroke-width:3;stroke-miterlimit:4;stroke-dasharray:none;paint-order:normal;stroke-linecap:round;stroke-linejoin:round">
      <path
         d="m 317.68774,1052.7291 c 0.18769,-1.5886 1.25604,-3.6493 3.2675,-4.5937 -3.02214,-0.458 -5.47631,0.9445 -6.69867,2.7476 -1.93957,-0.4148 -3.1313,-0.4375 -5.08182,-0.076 -1.23774,-0.9299 -2.69335,-3.049 -2.57941,-5.2663 -2.34186,2.7344 -2.82442,4.7963 -2.53573,7.2578 C 295.046,1068.7809 307.17297,1088 324.45841,1088 339.98802,1087.9999 349,1076.227 349,1064.1635 c 0,-8.1355 -3.71498,-15.1974 -7.50802,-16.7243 1.41518,1.5461 3.02294,5.5731 2.7149,8.3598 -3.06139,-7.9016 -10.70538,-10.9555 -13.28129,-10.7929 8.46779,3.2729 10.49427,14.4144 9.74305,17.7027 -0.7362,-3.8559 -3.0854,-7.1771 -4.49079,-8.055 8.20088,19.0448 -11.60491,24.8961 -17.64801,18.2866 1.55837,0.4006 4.63456,0.2037 6.93913,-1.3262 2.15604,-1.4312 2.35887,-1.5151 3.74411,-1.6217 1.6454,-0.1268 -0.0991,-3.3475 -3.69343,-2.8027 -1.47891,0.2243 -3.91595,1.9482 -6.9135,0.812 -3.61689,-1.3711 -3.50306,-6.2652 0.23185,-4.7927 0.80842,-1.0397 0.21168,-3.0051 0.21168,-3.0051 1.08513,-0.985 2.45499,-1.6791 3.2894,-2.1669 0.54722,-0.3199 1.98955,-1.2055 1.90788,-2.9277 -0.29383,-0.2277 -0.7687,-0.5188 -1.83833,-0.4579 -4.16795,0.2619 -4.44663,-1.2309 -4.72089,-1.9224 z"
         id="firefox"
         inkscape:connector-curvature="0"
         style="fill:none;fill-opacity:1;stroke:#ffffff;stroke-opacity:1;stroke-width:3;stroke-miterlimit:4;stroke-dasharray:none;paint-order:normal;stroke-linecap:round;stroke-linejoin:round" />
    </g>
  </g>
</svg>
